<?xml version="1.0" encoding="UTF-8"?>
<svg id="_图层_1" xmlns="http://www.w3.org/2000/svg" version="1.1" viewBox="0 0 300 400">
  <!-- Generator: Adobe Illustrator 30.8.1, SVG Export Plug-In . SVG Version: 2.1.4 Build 1)  -->
  <defs>
    <style>
      .st0 {
        fill: #0c7339;
        stroke: #0c7339;
      }

      .st1 {
        fill: #ffffdc;
      }
    </style>
  </defs>
  <g>
    <path d="M15.86,399.99h268.02c4.55,0,8.38-1.47,11.48-4.41,3.09-2.92,4.64-6.62,4.64-11.05V15.46c0-4.44-1.55-8.13-4.64-11.05C292.28,1.48,288.44,0,283.88,0H15.86C11.48,0,7.73,1.47,4.64,4.41,1.55,7.33,0,11.02,0,15.46v369.08c0,4.44,1.55,8.13,4.64,11.05,3.08,2.93,6.84,4.41,11.23,4.41"/>
    <path class="st1" d="M20.72,395.59h258.32c4.39,0,8.08-1.44,11.06-4.31,2.98-2.86,4.47-6.47,4.47-10.81V19.53c0-4.34-1.49-7.95-4.47-10.81-2.97-2.87-6.67-4.31-11.06-4.31H20.72c-4.23,0-7.84,1.44-10.82,4.31-2.98,2.86-4.47,6.47-4.47,10.81v360.95c0,4.34,1.49,7.95,4.47,10.81,2.97,2.87,6.59,4.31,10.82,4.31"/>
  </g>
  <path class="st0" d="M133.85,190.12c-3.29,0-6.14-.96-8.54-2.88s-3.6-4.45-3.6-7.61c0-2.47.69-4.42,2.06-5.86,1.37-1.44,3.02-2.78,4.94-4.01.55-.55,1.16-1.17,1.85-1.85,1.1-.96,2.06-1.99,2.88-3.09.82-1.1,1.23-2.33,1.23-3.7v-22.02c0-1.09-.44-2.23-1.33-3.39-.9-1.17-1.96-2.44-3.19-3.81-1.65-1.78-3.23-3.73-4.73-5.86-1.51-2.13-2.27-4.42-2.27-6.89s.72-4.73,2.16-6.79,3.05-3.98,4.84-5.76c1.23-1.37,2.29-2.64,3.19-3.81.89-1.16,1.33-2.36,1.33-3.6v-22.22c0-1.51-.48-2.84-1.44-4.01-.96-1.16-2.05-2.3-3.29-3.39-.41-.41-.82-.83-1.23-1.24-1.92-1.1-3.57-2.4-4.94-3.91-1.37-1.51-2.06-3.49-2.06-5.96,0-3.71,1.37-6.38,4.12-8.03,2.74-1.64,4.93-2.47,6.58-2.47,1.23,0,2.33-.27,3.29-.82.96-.55,1.85-1.16,2.68-1.85,1.23-.96,2.7-1.85,4.42-2.67,1.71-.83,4.08-1.24,7.1-1.24s5.41.41,7.2,1.24c1.78.82,3.22,1.71,4.32,2.67.96.69,1.92,1.3,2.88,1.85s2.06.82,3.29.82c1.65,0,3.84.83,6.58,2.47,2.75,1.65,4.12,4.32,4.12,8.03,0,2.47-.69,4.45-2.06,5.96-1.37,1.51-2.95,2.81-4.73,3.91-.41.28-.76.48-1.03.62-1.37,1.23-2.57,2.5-3.6,3.81-1.03,1.3-1.54,2.7-1.54,4.21v22.22c0,1.24.44,2.44,1.33,3.6.9,1.17,1.96,2.44,3.19,3.81,1.79,1.78,3.4,3.7,4.84,5.76s2.16,4.32,2.16,6.79-.76,4.76-2.27,6.89c-1.5,2.13-3.08,4.08-4.73,5.86-1.23,1.37-2.29,2.64-3.19,3.81-.89,1.16-1.33,2.3-1.33,3.39v22.02c0,1.51.44,2.81,1.33,3.91.9,1.09,1.96,2.19,3.19,3.29.55.55,1.1,1.03,1.65,1.44,1.78,1.23,3.36,2.57,4.73,4.01,1.37,1.44,2.06,3.39,2.06,5.86,0,3.16-1.2,5.69-3.6,7.61-2.4,1.92-5.25,2.88-8.54,2.88-1.78,0-3.26-.2-4.42-.61-1.17-.41-2.23-.89-3.19-1.44s-2.09-1.03-3.4-1.44c-1.3-.41-3.05-.62-5.24-.62s-3.95.21-5.25.62c-1.3.41-2.43.96-3.39,1.64-.96.55-1.99,1-3.09,1.34-1.1.34-2.54.51-4.32.51M143.11,105.36h13.78v-38.06c1.37-.96,2.51-2.19,3.4-3.7s1.33-3.09,1.33-4.73c0-2.61-1.13-4.94-3.39-7-2.26-2.05-5.04-3.08-8.33-3.08s-5.87,1.03-8.13,3.08c-2.26,2.06-3.39,4.39-3.39,7,0,3.29,1.57,6.1,4.73,8.43v38.06M139.2,116.88h21.4c1.37,0,2.5-.37,3.39-1.13.89-.75,1.34-1.61,1.34-2.57,0-.82-.45-1.58-1.34-2.26-.89-.69-2.02-1.03-3.39-1.03h-21.4c-1.37,0-2.47.34-3.29,1.03-.83.68-1.24,1.44-1.24,2.26,0,2.33,1.51,3.57,4.53,3.7M139.2,128.41h21.4c1.37,0,2.5-.38,3.39-1.14.89-.75,1.34-1.54,1.34-2.36,0-1.92-1.58-3.02-4.73-3.29h-21.4c-2.61,0-4.12,1.09-4.53,3.29,0,2.19,1.51,3.36,4.53,3.5M149.9,180.04c4.8,0,7.13-2.05,6.99-6.17v-40.73h-13.78v40.73c0,3.71,2.26,5.76,6.79,6.17M61.84,354.71c-3.15,0-5.93-.96-8.33-2.88-2.4-1.92-3.6-4.53-3.6-7.82,0-2.33.65-4.25,1.96-5.76,1.3-1.51,2.98-2.81,5.04-3.91.55-.55,1.09-1.09,1.64-1.64,1.1-1.1,2.09-2.2,2.99-3.3.89-1.09,1.33-2.4,1.33-3.9v-21.81c0-1.1-.44-2.23-1.33-3.4-.9-1.16-2.03-2.43-3.4-3.8-1.64-1.79-3.22-3.74-4.73-5.87-1.51-2.12-2.26-4.42-2.26-6.89s.75-4.73,2.26-6.79c1.51-2.05,3.09-3.97,4.73-5.76,1.24-1.37,2.33-2.67,3.29-3.91.96-1.23,1.44-2.4,1.44-3.49v-22.22c0-1.51-.51-2.88-1.54-4.12-1.03-1.23-2.16-2.4-3.39-3.49-.28-.42-.62-.83-1.03-1.24-2.06-1.1-3.74-2.4-5.04-3.91-1.31-1.51-1.96-3.43-1.96-5.76,0-2.47.65-4.49,1.96-6.07,1.3-1.57,2.81-2.74,4.52-3.49,1.72-.76,3.12-1.14,4.22-1.14,1.23,0,2.33-.24,3.29-.72s1.92-1.06,2.88-1.74c1.1-.96,2.5-1.89,4.22-2.78,1.71-.89,4.08-1.34,7.1-1.34s5.38.45,7.09,1.34c1.72.89,3.19,1.82,4.43,2.78.96.68,1.88,1.26,2.78,1.74.89.48,2.02.72,3.39.72,1.1,0,2.47.38,4.11,1.14,1.65.75,3.16,1.92,4.53,3.49,1.37,1.58,2.06,3.6,2.06,6.07,0,2.33-.69,4.25-2.06,5.76-1.37,1.51-3.02,2.81-4.94,3.91-.41.41-.82.82-1.23,1.24-1.24,1.09-2.33,2.26-3.29,3.49-.96,1.24-1.44,2.61-1.44,4.12v22.22c0,1.09.44,2.26,1.33,3.49.9,1.24,2.03,2.54,3.4,3.91,1.64,1.79,3.19,3.71,4.63,5.76,1.44,2.06,2.16,4.32,2.16,6.79s-.72,4.77-2.16,6.89c-1.44,2.13-3.05,4.08-4.84,5.87-1.23,1.37-2.29,2.64-3.19,3.8-.89,1.17-1.33,2.3-1.33,3.4v21.81c0,1.5.41,2.81,1.23,3.9.82,1.1,1.85,2.2,3.09,3.3.55.55,1.09,1.09,1.64,1.64,1.92,1.1,3.57,2.4,4.94,3.91s2.06,3.43,2.06,5.76c0,3.29-1.2,5.9-3.6,7.82s-5.18,2.88-8.33,2.88c-1.92,0-3.43-.21-4.53-.62s-2.2-.89-3.29-1.44c-.96-.55-2.09-1.06-3.4-1.54-1.3-.48-3.05-.72-5.24-.72-2.06,0-3.74.24-5.04.72-1.31.48-2.51.99-3.6,1.54-.96.55-2.03,1.03-3.19,1.44-1.17.41-2.64.62-4.43.62M205.65,354.71c-3.29,0-6.14-.96-8.54-2.88s-3.6-4.53-3.6-7.82c0-2.33.69-4.25,2.06-5.76s3.02-2.81,4.94-3.91c.55-.55,1.09-1.09,1.64-1.64,1.24-1.1,2.27-2.2,3.09-3.3.82-1.09,1.23-2.4,1.23-3.9v-21.81c0-1.1-.44-2.23-1.33-3.4-.9-1.16-1.96-2.43-3.19-3.8-1.79-1.79-3.4-3.74-4.84-5.87-1.44-2.12-2.16-4.42-2.16-6.89s.72-4.73,2.16-6.79c1.44-2.05,2.99-3.97,4.63-5.76,1.37-1.37,2.5-2.67,3.4-3.91.89-1.23,1.33-2.4,1.33-3.49v-22.22c0-1.51-.48-2.88-1.44-4.12-.96-1.23-2.05-2.4-3.29-3.49-.41-.42-.82-.83-1.23-1.24-1.92-1.1-3.57-2.4-4.94-3.91-1.37-1.51-2.06-3.43-2.06-5.76,0-2.47.69-4.49,2.06-6.07,1.37-1.57,2.88-2.74,4.53-3.49,1.64-.76,3.01-1.14,4.11-1.14,1.37,0,2.5-.24,3.39-.72.9-.48,1.82-1.06,2.78-1.74,1.24-.96,2.71-1.89,4.43-2.78,1.71-.89,4.08-1.34,7.09-1.34s5.39.45,7.1,1.34c1.72.89,3.12,1.82,4.22,2.78.96.68,1.92,1.26,2.88,1.74.96.48,2.12.72,3.5.72.96,0,2.29.38,4.01,1.14,1.71.75,3.22,1.92,4.52,3.49,1.31,1.58,1.96,3.6,1.96,6.07,0,2.33-.69,4.25-2.06,5.76s-3.02,2.81-4.94,3.91c-.41.55-.89,1.03-1.44,1.44-1.23,1.1-2.29,2.23-3.19,3.4-.89,1.16-1.33,2.5-1.33,4.01v22.22c0,1.09.44,2.26,1.33,3.49.9,1.24,2.03,2.54,3.4,3.91,1.64,1.79,3.22,3.71,4.73,5.76,1.51,2.06,2.26,4.32,2.26,6.79s-.75,4.77-2.26,6.89c-1.51,2.13-3.15,4.08-4.94,5.87-1.23,1.37-2.29,2.64-3.19,3.8-.89,1.17-1.33,2.3-1.33,3.4v21.81c0,1.5.41,2.77,1.23,3.8.82,1.03,1.78,2.09,2.88,3.19.69.55,1.3,1.17,1.85,1.85,1.92,1.1,3.57,2.4,4.94,3.91s2.06,3.43,2.06,5.76c0,3.29-1.2,5.9-3.6,7.82-2.4,1.92-5.25,2.88-8.54,2.88-1.78,0-3.22-.21-4.32-.62s-2.13-.89-3.09-1.44c-.96-.55-2.09-1.06-3.39-1.54s-3.05-.72-5.25-.72-3.94.24-5.24.72c-1.31.48-2.44.99-3.4,1.54-.96.55-2.02,1.03-3.19,1.44-1.16.41-2.64.62-4.42.62M71.1,269.95h13.99v-38.06c3.02-2.47,4.53-5.28,4.53-8.44,0-2.74-1.1-5.11-3.29-7.09-2.2-1.99-4.94-2.99-8.23-2.99s-6.04,1-8.23,2.99c-2.2,1.98-3.29,4.35-3.29,7.09,0,3.16,1.5,5.97,4.52,8.44v38.06M214.91,269.95h13.99v-38.06c3.02-2.47,4.52-5.28,4.52-8.44,0-2.74-1.13-5.11-3.39-7.09-2.26-1.99-4.97-2.99-8.13-2.99s-6.03,1-8.23,2.99c-2.19,1.98-3.29,4.35-3.29,7.09,0,3.16,1.51,5.97,4.53,8.44v38.06M67.6,281.47h21.2c1.37,0,2.5-.38,3.39-1.13.89-.76,1.34-1.61,1.34-2.57,0-.83-.45-1.58-1.34-2.27-.89-.68-2.02-1.03-3.39-1.03h-21.2c-1.37,0-2.5.35-3.39,1.03-.89.69-1.34,1.44-1.34,2.27,0,2.33,1.58,3.56,4.73,3.7M211.2,281.47h21.4c1.24,0,2.3-.38,3.19-1.13.89-.76,1.34-1.61,1.34-2.57,0-.83-.45-1.58-1.34-2.27-.89-.68-1.95-1.03-3.19-1.03h-21.4c-1.5,0-2.67.35-3.49,1.03-.83.69-1.24,1.44-1.24,2.27,0,2.33,1.58,3.56,4.73,3.7M67.6,292.99h21.2c1.37,0,2.5-.38,3.39-1.13.89-.76,1.34-1.61,1.34-2.57,0-.83-.45-1.55-1.34-2.16-.89-.62-2.02-.93-3.39-.93h-21.2c-1.37,0-2.5.31-3.39.93-.89.61-1.34,1.33-1.34,2.16,0,2.33,1.58,3.56,4.73,3.7M211.2,292.99h21.4c1.24,0,2.3-.38,3.19-1.13.89-.76,1.34-1.61,1.34-2.57,0-1.79-1.51-2.81-4.53-3.09h-21.4c-2.88,0-4.45,1.03-4.73,3.09,0,2.33,1.58,3.56,4.73,3.7M78.1,344.63c4.52,0,6.85-2.06,6.99-6.17v-40.74h-13.99v40.74c0,3.56,2.33,5.62,7,6.17M221.9,344.63c4.53,0,6.86-2.06,7-6.17v-40.74h-13.99v40.74c0,3.56,2.33,5.62,6.99,6.17"/>
</svg>